<?xml version="1.0" encoding="utf-8"?>
<!-- Generator: Adobe Illustrator 25.3.1, SVG Export Plug-In . SVG Version: 6.00 Build 0)  -->
<svg version="1.1" id="Layer_1" xmlns="http://www.w3.org/2000/svg" xmlns:xlink="http://www.w3.org/1999/xlink" x="0px" y="0px"
	 viewBox="0 0 289 100" style="enable-background:new 0 0 289 100;" xml:space="preserve">
<style type="text/css">
	.st0{fill:#FFFFFF;}
</style>
<path class="st0" d="M239,88.8c-8.9,0-17.1-3-23.6-8.1C222,72.3,226,61.6,226,50c0-11.6-4-22.3-10.6-30.8c6.5-5,14.7-8.1,23.6-8.1
	c21.4,0,38.8,17.4,38.8,38.8C277.8,71.4,260.4,88.8,239,88.8 M152.4,80.8C159,72.3,163,61.6,163,50c0-11.6-4-22.3-10.6-30.8
	c6.5-5,14.7-8.1,23.6-8.1c8.9,0,17.1,3,23.6,8.1C193,27.7,189,38.4,189,50c0,11.6,4,22.3,10.6,30.8c-6.5,5-14.7,8.1-23.6,8.1
	C167.1,88.8,158.9,85.8,152.4,80.8 M89.4,80.8C96,72.3,100,61.6,100,50c0-11.6-4-22.3-10.6-30.8c6.5-5,14.7-8.1,23.6-8.1
	s17.1,3,23.6,8.1C130,27.7,126,38.4,126,50c0,11.6,4,22.3,10.6,30.8c-6.5,5-14.7,8.1-23.6,8.1S95.9,85.8,89.4,80.8 M11.2,50
	c0-21.4,17.4-38.8,38.8-38.8c8.9,0,17.1,3,23.6,8.1C67,27.7,63,38.4,63,50c0,11.6,4,22.3,10.6,30.8c-6.5,5-14.7,8.1-23.6,8.1
	C28.6,88.8,11.2,71.4,11.2,50 M81.5,72.6c-4.6-6.4-7.3-14.2-7.3-22.6c0-8.4,2.7-16.3,7.3-22.6c4.6,6.4,7.3,14.2,7.3,22.6
	C88.8,58.4,86.1,66.3,81.5,72.6 M144.5,72.6c-4.6-6.4-7.3-14.2-7.3-22.6c0-8.4,2.7-16.3,7.3-22.6c4.6,6.4,7.3,14.2,7.3,22.6
	C151.8,58.4,149.1,66.3,144.5,72.6 M207.5,72.6c-4.6-6.4-7.3-14.2-7.3-22.6c0-8.4,2.7-16.3,7.3-22.6c4.6,6.4,7.3,14.2,7.3,22.6
	C214.8,58.4,212.1,66.3,207.5,72.6 M239,0c-11.9,0-22.9,4.2-31.5,11.2C198.9,4.2,187.9,0,176,0s-22.9,4.2-31.5,11.2
	C135.9,4.2,124.9,0,113,0c-11.9,0-22.9,4.2-31.5,11.2C72.9,4.2,61.9,0,50,0C22.4,0,0,22.4,0,50c0,27.6,22.4,50,50,50
	c11.9,0,22.9-4.2,31.5-11.2c8.6,7,19.6,11.2,31.5,11.2c11.9,0,22.9-4.2,31.5-11.2c8.6,7,19.6,11.2,31.5,11.2s22.9-4.2,31.5-11.2
	c8.6,7,19.6,11.2,31.5,11.2c27.6,0,50-22.4,50-50C289,22.4,266.6,0,239,0"/>
</svg>
